<?xml version="1.0" encoding="UTF-8" standalone="no"?>
<svg width="22px" height="22px" viewBox="0 0 22 22" version="1.1" xmlns="http://www.w3.org/2000/svg" xmlns:xlink="http://www.w3.org/1999/xlink">
    <!-- Generator: Sketch 48 (47235) - http://www.bohemiancoding.com/sketch -->
    <title>code</title>
    <desc>Created with Sketch.</desc>
    <defs></defs>
    <g id="Page-1" stroke="none" stroke-width="1" fill="none" fill-rule="evenodd">
        <g id="code" transform="translate(0.000000, -1.000000)" fill="#FFFFFF" fill-rule="nonzero">
            <path d="M6.00001172,17.0000078 L6.00001172,19.0000117 L4.00000781,19.0000117 L4.00000781,17.0000078 L6.00001172,17.0000078 Z M6.00001172,5.00001172 L6.00001172,7.00001562 L4.00000781,7.00001562 L4.00000781,5.00001172 L6.00001172,5.00001172 Z M18.0000078,5.00001172 L18.0000078,7.00001562 L16.0000039,7.00001562 L16.0000039,5.00001172 L18.0000078,5.00001172 Z M2.00000391,20.984375 L8.00001562,20.984375 L8.00001562,15.0000039 L2.00000391,15.0000039 L2.00000391,20.984375 Z M2.00000391,8.99999219 L8.00001562,8.99999219 L8.00001562,2.99998047 L2.00000391,2.99998047 L2.00000391,8.99999219 Z M14,8.99999219 L20.0000117,8.99999219 L20.0000117,2.99998047 L14,2.99998047 L14,8.99999219 Z M9.99999219,13 L9.99999219,22.9999922 L0,22.9999922 L0,13 L9.99999219,13 Z M18.0000078,20.9999883 L18.0000078,22.9999922 L16.0000039,22.9999922 L16.0000039,20.9999883 L18.0000078,20.9999883 Z M21.9999883,20.9999883 L21.9999883,22.9999922 L19.9999844,22.9999922 L19.9999844,20.9999883 L21.9999883,20.9999883 Z M21.9999883,13 L21.9999883,19.0000117 L15.9999766,19.0000117 L15.9999766,17.0000078 L13.9999727,17.0000078 L13.9999727,23.0000195 L11.9999688,23.0000195 L11.9999688,13 L17.9999805,13.0000273 L17.9999805,15.0000312 L19.9999844,15.0000312 L19.9999844,13.0000273 L21.9999883,13 Z M9.99999219,1.00000391 L9.99999219,10.9999961 L0,10.9999961 L0,1.00000391 L9.99999219,1.00000391 Z M21.9999883,1.00000391 L21.9999883,10.9999961 L11.9999961,10.9999961 L11.9999961,1.00000391 L21.9999883,1.00000391 Z" id="Shape"></path>
        </g>
    </g>
</svg>