<?xml version="1.0" encoding="UTF-8" standalone="no"?>
<svg width="28px" height="24px" viewBox="0 0 28 24" version="1.1" xmlns="http://www.w3.org/2000/svg" xmlns:xlink="http://www.w3.org/1999/xlink">
    <!-- Generator: Sketch 48 (47235) - http://www.bohemiancoding.com/sketch -->
    <title>8</title>
    <desc>Created with Sketch.</desc>
    <defs></defs>
    <g id="Page-1" stroke="none" stroke-width="1" fill="none" fill-rule="evenodd">
        <g id="8" fill="#E60101" fill-rule="nonzero">
            <path d="M14,23.9999961 C13.7499961,23.9999961 13.4999922,23.9062344 13.3124961,23.7187383 L3.56250781,14.3124883 C3.43751953,14.2031133 -1.77635684e-15,11.0624922 -1.77635684e-15,7.31248828 C-1.77635684e-15,2.73435156 2.79688281,-2.34375e-05 7.46875391,-2.34375e-05 C10.2031289,-2.34375e-05 12.7656211,2.15622266 14,3.37498828 C15.2343789,2.15625 17.7968711,-2.34375e-05 20.5312461,-2.34375e-05 C25.2031172,-2.34375e-05 28,2.73435156 28,7.31248828 C28,11.0624922 24.5625078,14.2031133 24.4218789,14.3437422 L14.6875039,23.7187383 C14.5000078,23.9062344 14.2500039,23.9999961 14,23.9999961 Z" id="Shape"></path>
        </g>
    </g>
</svg>